<?xml version="1.0" encoding="UTF-8" standalone="no"?>
<svg
   id="Layer_1"
   data-name="Layer 1"
   viewBox="0 0 557.25 339.75"
   version="1.1">
  <defs
     id="defs4">
    <style
       id="style2">.cls-1{fill:#d77d21;}.cls-2{fill:#fefefe;}.cls-3{fill:#fefdfd;}.cls-4{fill:#fefcfb;}.cls-5{fill:#fdfbf9;}.cls-6{fill:#fdfcfa;}.cls-7{fill:#fdfcfb;}.cls-8{fill:#d77c21;}.cls-9{fill:#d0681b;}.cls-10{fill:#d88027;}.cls-11{fill:#da8733;}</style>
  </defs>
  <title
     id="title6">chiralwithwordssvg</title>
  <path
     class="cls-3"
     d="M146,353.44l18.53,10.81c2.24-1.73,4.56-3.4,6.74-5.23,6.77-5.72,14.72-8,23.42-8,8-.05,16.15-.55,23.94,2.23,1,.36,2,.69,3.32,1.13l22.2-27c-1.75-2.26-3.36-4.62-5.24-6.73a30.89,30.89,0,0,1-7.73-19c-.52-8.89-1.24-18,1.53-26.7,2.16-6.81,6.22-12.46,11.3-17.47,6.5-6.42,14-11,23.19-11.85,10.27-1,20.83-1.66,30.59,2.21,5.8,2.31,10.79,6.46,15.33,11.26,6.11,6.47,10.3,13.64,11.19,22.32,1.06,10.27,1.69,20.83-2.17,30.59-2.3,5.81-6.45,10.8-11.23,15.36-6.56,6.26-13.91,10.45-22.68,11.29-10.13,1-20.39,1.07-30.31-2.07a11.39,11.39,0,0,1-2.46-1.73l-22.14,26.92c3.76,5.43,7.75,10.31,10.69,15.75a25,25,0,0,1,2.58,11.11c.15,9.27,1.33,18.73-2.11,27.71a38.28,38.28,0,0,1-4.89,9.28c-1.44,1.92-1.78,3,0,4.55,7.08,6.14,14.08,12.38,21.28,18.38.91.77,2.93.76,4.23.39,4.32-1.21,8.49-3.73,12.82-4,9-.49,18.21-1.31,27.05,1.59a42.71,42.71,0,0,1,17.16,11.11c6.39,6.51,11,14,11.89,23.18,1,10.28,1.69,20.85-2.19,30.58-2.16,5.41-6.41,10.2-10.42,14.63-6.11,6.74-13.88,11.11-23.06,12-10.29,1-20.82,1.64-30.6-2.13-5.83-2.25-10.83-6.42-15.37-11.2-6.13-6.45-10.3-13.61-11.24-22.3-1.12-10.28-1.54-20.74,2-30.61,1.72-4.72,5.31-8.75,8.25-13.41-7.18-6.26-14.63-13.09-22.56-19.33-1.17-.93-4.56.81-6.86,1.5-4.42,1.31-8.75,3.72-13.21,3.94-9.25.46-18.76,1.43-27.69-2.1-4.9-1.92-9.73-4.21-13.29-8.42a37.53,37.53,0,0,0-3.59-3.27l-6.24,4.36c7.29,8.53,11.37,18.17,10.65,29.45-.43,6.79-.47,13.7-1.88,20.3-1.46,6.82-5.92,12.35-10.92,17.22-6.4,6.24-13.64,10.87-22.8,11.86-10.43,1.12-21,1.79-30.9-2-5.44-2.1-10.3-6.28-14.69-10.33-6.54-6-11-13.53-12-22.69-1.13-10.44-1.8-21,2-30.91,2.09-5.43,6.31-10.25,10.29-14.71,6.26-7,14.36-11.47,23.74-12.25,10-.84,20.71-2.18,29.76,2.42,6.06,3.09,8.94.73,12.85-2.13l1.85-1.39c-4.32-14.92-4.59-29.52.38-44.78-5.37-3.12-11.21-6.63-17.2-9.85-.76-.4-2.84.36-3.45,1.21-3.91,5.39-9.42,8.74-15.11,11.6a26.75,26.75,0,0,1-11.05,2.72c-8.92.22-18,1.19-26.71-1.58a41.21,41.21,0,0,1-17.2-11.05c-6.2-6.4-10.9-13.6-11.89-22.77-1.12-10.44-1.83-21.06,2-30.9,2.15-5.54,6.51-10.41,10.57-15a34.82,34.82,0,0,1,23.08-11.95c10.27-1,20.84-1.68,30.59,2.21,6,2.42,11.14,6.82,15.83,11.82,6.52,6.94,10.49,14.78,10.94,24C147.28,334.61,146.37,343.65,146,353.44ZM265.4,519c.76.58,1.51,1.17,2.28,1.75,10,7.61,28.91,7.53,38.82.63,10.74-7.47,16.16-17.16,16.07-30.29-.08-11.51-4.61-20.53-13.58-27.5-11.93-9.94-32.58-9-44.3,1C248.29,478.62,248.49,505.94,265.4,519ZM99.65,495c.76.58,1.51,1.17,2.28,1.75,10,7.61,28.91,7.53,38.82.63,10.74-7.47,16.16-17.16,16.07-30.29-.08-11.51-4.61-20.53-13.58-27.5-11.93-9.94-32.58-9-44.3,1C82.54,454.62,82.74,481.94,99.65,495ZM221.24,369.87c-11.93-9.94-32.58-9-44.3,1-16.4,14-16.2,41.34.71,54.43.76.58,1.51,1.17,2.28,1.75,10,7.61,28.91,7.53,38.82.63,10.74-7.47,16.16-17.16,16.07-30.29C234.74,385.86,230.21,376.84,221.24,369.87ZM77.9,361.53c.76.58,1.51,1.17,2.28,1.75,10,7.61,28.91,7.53,38.82.63,10.74-7.47,16.16-17.16,16.07-30.29-.08-11.51-4.61-20.53-13.58-27.5-11.93-9.94-32.58-9-44.3,1C60.79,321.12,61,348.45,77.9,361.53Zm221.34-97.41c-11.93-9.94-32.58-9-44.3,1-16.4,14-16.2,41.34.71,54.43.76.58,1.51,1.17,2.28,1.75,10,7.61,28.91,7.53,38.82.63,10.74-7.47,16.16-17.16,16.07-30.29C312.74,280.11,308.21,271.09,299.24,264.12Z"
     transform="translate(-28.5 -226.5)"
     id="path12" />
  <path
     class="cls-4"
     d="M434.89,390.93c-1.61,6.83-3.13,12.59-4.27,18.41-.6,3.05-2,4.15-5.05,4.09-9.63-.16-9.57.86-7.18-9.16,3.39-14.2,6.6-28.44,9.9-42.66,1.21-5.23,1.24-5.32,6.77-5.22,5.86.1,11.74.17,17.58.64,5.08.41,9.86,2,13,6.41,4.8,6.75,2.47,16.42-5.46,21.86-3.05,2.09-6.55,3.51-10,5.33l11.75,16.25c4.93-5.88,9.65-11.47,14.33-17.08q13.81-16.55,27.6-33.1c2.69-3.22,4.7-2.9,6.14,1q9.46,25.43,18.85,50.87c1.41,3.83.77,4.72-3.21,4.84-9.08.27-9.26.33-12.18-8.4-1.16-3.49-2.67-4.92-6.54-4.71-7,.39-14,0-21,.22-1.72.06-4.22.95-5,2.25-5.29,9.37-13.16,11.77-23.47,10.92-5.35-.45-8.73-1.72-11.43-6.32C442.91,402,439.09,397,434.89,390.93Zm2.25-10c5.46.36,10.56.24,14.66-2.88a9.22,9.22,0,0,0,3.1-6.53c0-1.27-2.88-3.16-4.77-3.68-3-.85-6.32-.81-9.64-1.15C439.35,371.58,438.3,376,437.14,381Zm70.65,8.59-4.87-13.95-11.21,13.95Z"
     transform="translate(-28.5 -226.5)"
     id="path14" />
  <path
     class="cls-5"
     d="M354.82,377.59c8.78,0,17.26.07,25.73-.11.83,0,2.08-1.53,2.36-2.55,1.27-4.69,2.4-9.43,3.29-14.21.59-3.15,2.11-4.39,5.31-4.41,9.07-.06,9.14,0,7.05,8.94-3.38,14.45-6.82,28.89-10,43.39-.78,3.57-2.16,4.94-5.93,4.83-8.68-.23-8.68,0-6.7-8.54q1.79-7.65,3.51-15.31a4.14,4.14,0,0,0-.12-1H351.78c-1.5,6.39-2.93,12.93-4.61,19.4-.47,1.81-1.41,4.68-2.55,4.91a30.63,30.63,0,0,1-10-.13c-.49-.07-1.1-3.09-.78-4.55,2.45-11.21,5.11-22.37,7.72-33.54,1.1-4.74,2.39-9.44,3.28-14.22.57-3.06,2.11-4.22,5.1-4.16,7.5.17,10.22-1.3,7.24,8.69-1.07,3.58-1.68,7.29-2.47,10.94A8,8,0,0,0,354.82,377.59Z"
     transform="translate(-28.5 -226.5)"
     id="path16" />
  <path
     class="cls-6"
     d="M322.85,355c3.45.76,8.55,1.78,13.59,3.06,2.88.72,4.09,2.65,3,5.68a21.43,21.43,0,0,0-.57,2.55c-1.17,4.91-2.22,5.38-6.46,2.91-12.94-7.53-34.59-1.39-41.74,11.84-5.41,10,.5,20.56,12.62,22.39a36.16,36.16,0,0,0,22.16-3.58c1.18-.59,3.22-1,4-.44s.71,2.6.72,4c.05,6-3.61,8.15-9,9.41-11.3,2.66-22.27,2.7-32.8-2.68-13.06-6.66-17.21-20.86-9.4-33.28C288.65,361.47,303.82,356.25,322.85,355Z"
     transform="translate(-28.5 -226.5)"
     id="path18" />
  <path
     class="cls-7"
     d="M546,402.75c5.52,0,10.64,0,15.75,0,4.18,0,4.92,1,4,4.91-1.28,5.72-1.28,5.72-7,5.72-8,0-16,0-24,0-3.7,0-4.42-1-3.59-4.59,3.73-16.17,7.52-32.31,11.2-48.49.63-2.76,2-3.91,4.88-4,9.29-.16,9.55.12,7.43,9.06C551.83,377.63,549,389.89,546,402.75Z"
     transform="translate(-28.5 -226.5)"
     id="path20" />
  <path
     class="cls-6"
     d="M402.23,413.38c-1.06,0-1.81,0-2.56,0-3.83-.09-4.59-1-3.72-4.83q5-21.87,10.1-43.72c.06-.24.16-.48.22-.72,1.91-8.09,2.8-8.69,11.16-7.75,2.54.29,3.58,1.62,3,4.06-3.85,16.64-7.79,33.26-11.59,49.91C407.85,414.7,404.49,413,402.23,413.38Z"
     transform="translate(-28.5 -226.5)"
     id="path22" />
  <metadata
     id="metadata14">
  </metadata>
</svg>
