<svg xmlns="http://www.w3.org/2000/svg" viewBox="0 0 343.13 359.49"><defs><style>.cls-1{fill:#d77c21;}.cls-2{fill:#d0681b;}.cls-3{fill:#c7c6c4;}.cls-4{fill:#c6c4c2;}.cls-5{fill:#c6c5c3;}.cls-6{fill:#c4c2c1;}.cls-7{fill:#7d7c7b;}.cls-8{fill:#b7b5b4;}.cls-9{fill:#b4b3b1;}.cls-10{fill:#999796;}.cls-11{fill:#e7e6e6;}.cls-12{fill:#b3b2b1;}.cls-13{fill:#b4b2b1;}.cls-14{fill:#9a9897;}.cls-15{fill:#9c9b9a;}.cls-16{fill:#9e9d9c;}.cls-17{fill:#757574;}.cls-18{fill:#929190;}.cls-19{fill:#949392;}.cls-20{fill:#7a7978;}.cls-21{fill:#787877;}.cls-22{fill:#8f8e8d;}.cls-23{fill:#7c7b7a;}.cls-24{fill:#8d8d8b;}.cls-25{fill:#da8a4f;}</style></defs><title>chiralwordless</title><g id="Layer_2" data-name="Layer 2"><g id="Layer_1-2" data-name="Layer 1"><path class="cls-1" d="M20.64,142.11C-5.14,125.45-6.92,87,16.13,67.15c15.47-13.32,41.54-13.85,56-3.36l1,.74,8.88,8c-2.3-.12-3,.56-1.92,2.91,3.35,7.22,4.08,14.85,4.18,22.79.27,23.22-21.16,44.81-44.21,44.24-6-.14-11.9-.6-17.85-.92l-.12-.1-.82,0A3.25,3.25,0,0,0,20.64,142.11Z"/><path class="cls-1" d="M271,352.08c-13.41-8.86-20.26-21.21-20.75-37.4-.57-18.46,7.15-32.12,22.45-42,12.94-8.37,37.16-8.35,49.45,1.14l1,.74,8.88,8c-2.3-.12-3,.57-1.92,2.91,3.58,7.52,4.23,15.52,4.14,23.78-.24,22.36-20.89,43.3-43.15,43.25-6.43,0-12.87-.37-19.31-.57l.05.14c-.05-.25-.11-.49-.16-.73Z"/><path class="cls-1" d="M102.1,242.53l8.88,8c-2.3-.12-3,.57-1.92,2.91,3.58,7.52,4.23,15.52,4.14,23.78-.24,22.36-20.89,43.3-43.15,43.25-6.43,0-12.87-.37-19.31-.57l0,.14c0-.25-.11-.49-.16-.73l-.67.75c-13.41-8.86-20.26-21.21-20.75-37.4-.57-18.46,7.15-32.12,22.45-42,12.94-8.37,37.16-8.35,49.45,1.14Z"/><path class="cls-1" d="M206.1,149.53l7.89,7c-.34,1.21-1.3,2.71-.9,3.6,3.34,7.61,4.19,15.51,4.11,23.76-.23,22.89-20.78,43.62-43.67,43.56-6.1,0-12.19-.41-18.28-.62l.05.24-1.35,0c-29-17.93-28.57-64.73,4.63-80.92,15.47-7.55,31.51-6.95,46.53,2.62Z"/><path class="cls-1" d="M310.1,8.53l7,6.11c-.09,1.4-.69,3-.18,4.16,3.52,7.73,4.41,15.77,4.32,24.19-.24,22.83-20.81,43.56-43.69,43.5-6.09,0-12.18-.41-18.26-.62l.05.24-1.35,0c-29-17.93-28.57-64.73,4.63-80.93,15.47-7.54,31.51-6.94,46.53,2.63Z"/><path class="cls-2" d="M259.25,85.87c6.08.21,12.17.6,18.26.62C300.39,86.55,321,65.82,321.2,43c.09-8.42-.8-16.46-4.32-24.19-.51-1.12.09-2.76.18-4.16,7.72,6.59,11.63,15.43,12.76,25.07,1.91,16.31-2.07,31-14.92,42.31-8,7-17.15,11-27.93,11.41-7.46.24-14.8-.22-21.7-3.18C263,89.29,261.24,87.36,259.25,85.87Z"/><path class="cls-2" d="M271.74,351.92c6.44.2,12.88.55,19.31.57,22.26.05,42.91-20.89,43.15-43.25.09-8.26-.56-16.26-4.14-23.78-1.11-2.34-.38-3,1.92-2.91,6.93,7.22,10.33,16,11,25.85.8,12-1.26,23.1-8.9,32.84-8.66,11-19.65,17.46-33.81,18.14-7.44.36-14.8,0-21.71-3.08C276.11,355.22,274,353.4,271.74,351.92Z"/><path class="cls-2" d="M22.18,141.57c5.95.32,11.9.78,17.85.92,23,.57,44.48-21,44.21-44.24-.1-7.94-.83-15.57-4.18-22.79-1.09-2.35-.38-3,1.92-2.91,6.93,7.26,10.32,16,11,25.94.83,12-1.31,23.22-9,32.92-8.58,10.84-19.5,17.27-33.53,18-9,.46-17.74-.43-25.78-4.9a16.66,16.66,0,0,1-2.52-2.12C22.17,142.11,22.17,141.84,22.18,141.57Z"/><path class="cls-2" d="M50.74,319.92c6.44.2,12.88.55,19.31.57,22.26.05,42.91-20.89,43.15-43.25.09-8.26-.56-16.26-4.14-23.78-1.11-2.34-.38-3,1.92-2.91,6.93,7.22,10.33,16,11,25.85.8,12-1.26,23.1-8.9,32.84-8.66,11-19.65,17.46-33.81,18.14-7.44.36-14.8,0-21.71-3.08C55.11,323.22,53,321.4,50.74,319.92Z"/><path class="cls-2" d="M155.25,226.87c6.09.21,12.18.6,18.28.62,22.89.06,43.44-20.67,43.67-43.56.08-8.25-.77-16.15-4.11-23.76-.4-.89.56-2.39.9-3.6,7.19,6.4,10.74,14.91,11.81,24,1.92,16.3-2,31.07-14.84,42.4-8,7-17.14,11.12-28,11.46-7.47.23-14.82-.21-21.73-3.18C159.05,230.29,157.24,228.36,155.25,226.87Z"/><path class="cls-3" d="M217.27,126.57c5-6.61,10.12-13.18,15.08-19.84,1.85-2.49,3.11-5.47,5.2-7.69,1.78-1.88,4.37-3,6.6-4.44l1.41,8.53c-3.95,2-7.1,4.16-6.49,8.92L238,113.4l-1.87.13-1.95,2.07-1.05,1.93-1.95,2.07c-.41,1.56-.81,3.13-1.22,4.7l0,.12-.28,1.28.48,1.33-1.51,1.5-2-.05Z"/><path class="cls-4" d="M237.18,257.49l-2.13-2.92-11-12c.33-2.16,0-4.9,1.2-6.3,1-1.12,3.82-.59,5.83-.79l1.09,1,0,0,1,1,0,0,1,1,0,0,1,1,0,0,1,1,0,0,1,1,0,0,1,1,0,0,1,1,0,0,1,1v0c.47,1.34.55,3.14,1.49,3.94,3.81,3.29,6.62,7.06,7.46,12.13l0,2-.31.08-.3-.07-5.4,0-5.94-5.06Z"/><path class="cls-5" d="M119,237.41c2-6,7-9,12.18-11.75l1.9,1.89.21,4.06c-1.9,4.07-3.89,8-9.09,8.63Z"/><path class="cls-6" d="M111.08,148.52c-1.59-1.71-4.48-3.46-4.43-5.12.06-1.93,2.7-5.33,4.21-5.32,2.45,0,4.9,2.27,7.35,3.59,0,1.61,0,3.23,0,4.85v2Z"/><path class="cls-7" d="M124.19,240.24c5.2-.59,7.19-4.56,9.09-8.63q.91-2.12,1.85-4.22c2.65,3,2.5,5.85-.36,8.63-1.91,1.86-3.65,3.9-5.68,5.61-2.6,2.18-5.4,3.34-8-.11Z"/><path class="cls-8" d="M239.07,112.05c-.61-4.76,2.54-6.94,6.49-8.92l-1.41-8.53,4,3c-.32,2.47-.64,5-1,7.42l-2,1.07c-.34,1-.68,1.95-1,2.92-.67.86-1.35,1.71-2,2.56l-1.46,1.06h0Z"/><path class="cls-9" d="M249.13,260.52c-.84-5.07-3.65-8.84-7.46-12.13-.94-.8-1-2.6-1.49-3.94l9.95,11c0,1.7,0,3.4,0,5.11l.06-.06Z"/><path class="cls-10" d="M233.14,117.53l1.05-1.93,1.95-2.07,1.87-.13c.05.75.09,1.49.13,2.23q-3.06,4.47-6.13,8.92l-2-.25c.41-1.57.81-3.14,1.22-4.71Z"/><path class="cls-11" d="M224.07,242.58l11,12C230.25,251.61,225.75,248.39,224.07,242.58Z"/><path class="cls-12" d="M217.27,126.57l9.34,1.91c.19.7.37,1.4.56,2.09h0l-4,.13-3.11-.17Z"/><path class="cls-13" d="M124.19,240.24l-3.12,1.28q-1-2.06-2.08-4.11Z"/><path class="cls-14" d="M111.08,148.52l7.09,0C115.8,150.62,113.43,152.12,111.08,148.52Z"/><path class="cls-15" d="M135.13,227.39q-.93,2.1-1.85,4.22l-.21-4.06.06-1.09Z"/><path class="cls-16" d="M118.17,146.52c0-1.62,0-3.24,0-4.85.34,1.63.69,3.26,1,4.89Z"/><path class="cls-7" d="M247.15,105c.33-2.47.65-5,1-7.42C247.8,100,247.48,102.5,247.15,105Z"/><path class="cls-17" d="M223.18,130.69l4-.13-5.13,1Z"/><path class="cls-18" d="M250.15,260.6c0-1.71,0-3.41,0-5.11Z"/><path class="cls-19" d="M243.1,262.52l5.4,0Z"/><path class="cls-13" d="M133.13,226.46l-.06,1.09-1.9-1.89Z"/><path class="cls-20" d="M238.14,115.63c0-.74-.08-1.48-.13-2.23l1.06-1.35,1.61.54Z"/><path class="cls-21" d="M230,124.3l2,.25L230.14,127l-.48-1.33c.1-.43.19-.85.28-1.28Z"/><path class="cls-22" d="M223.18,130.69l-1.13.85-2-1Z"/><path class="cls-23" d="M244.15,109c.35-1,.69-1.95,1-2.92C244.84,107,244.5,108,244.15,109Z"/><path class="cls-14" d="M118.17,146.52l1.08,0-1.09,2C118.16,147.89,118.16,147.2,118.17,146.52Z"/><path class="cls-24" d="M249.13,260.52l1.08,0-1.1,2C249.11,261.86,249.12,261.19,249.13,260.52Z"/><path class="cls-17" d="M227.17,130.57c-.19-.69-.37-1.39-.56-2.09l2,.05Z"/><path class="cls-9" d="M236.19,240.49l-1-1Z"/><path class="cls-9" d="M237.19,241.49l-1-1Z"/><path class="cls-25" d="M102.1,242.53l-1-.74Z"/><path class="cls-9" d="M238.19,242.49l-1-1Z"/><path class="cls-9" d="M233.19,237.49l-1-1Z"/><path class="cls-9" d="M239.19,243.49l-1-1Z"/><path class="cls-9" d="M240.19,244.49l-1-1Z"/><path class="cls-1" d="M22.18,141.57c0,.27,0,.54,0,.8l-1.52-.27a3.47,3.47,0,0,1,.6-.67l.41,0h.41Z"/><path class="cls-9" d="M232.19,236.49l-1.09-1Z"/><path class="cls-11" d="M237.16,257.46l-.43.43c0-.08,0-.21.09-.25a1.14,1.14,0,0,1,.36-.15Z"/><path class="cls-9" d="M235.19,239.49l-1-1Z"/><path class="cls-9" d="M234.19,238.49l-1-1Z"/><path class="cls-25" d="M323.1,274.53l-1-.74Z"/><path class="cls-2" d="M50,320.08l.67-.75c0,.24.11.48.16.73l-.41.14Z"/><path class="cls-2" d="M271,352.08l.67-.75c.05.24.11.48.16.73l-.41.14Z"/><path class="cls-2" d="M22.06,141.47h-.41l-.41,0Z"/><path class="cls-8" d="M233.14,117.53l-1.95,2.06Z"/><path class="cls-8" d="M236.14,113.53l-1.95,2.07Z"/><path class="cls-10" d="M229.94,124.42c-.09.43-.18.85-.28,1.28C229.75,125.27,229.84,124.85,229.94,124.42Z"/></g></g></svg>